<?xml version="1.0" encoding="UTF-8"?>
<svg width="700pt" height="700pt" version="1.1" viewBox="0 0 700 700" xmlns="http://www.w3.org/2000/svg" xmlns:xlink="http://www.w3.org/1999/xlink">
 <g>
  <path d="m350 28c-138.95 0-252 113.05-252 252 0 138.95 113.05 252 252 252s252-113.05 252-252c0-138.95-113.05-252-252-252zm0 447.3c-107.87 0-195.3-87.434-195.3-195.29 0-107.87 87.434-195.3 195.3-195.3s195.3 87.438 195.3 195.3c0 107.86-87.434 195.29-195.3 195.29z"/>
  <path d="m446.26 251.65h-67.91v-67.91c0-15.656-12.695-28.348-28.348-28.348s-28.348 12.695-28.348 28.348v67.91h-67.91c-15.656 0-28.348 12.695-28.348 28.348s12.695 28.348 28.348 28.348h67.91v67.91c0 15.656 12.695 28.348 28.348 28.348s28.348-12.695 28.348-28.348v-67.91h67.91c15.664 0 28.348-12.695 28.348-28.348s-12.684-28.348-28.348-28.348z"/>
 </g>
</svg>
