<svg width="203" height="203" viewBox="0 0 203 203" fill="none" xmlns="http://www.w3.org/2000/svg">
<g filter="url(#filter0_d_5_4)">
<g filter="url(#filter1_d_5_4)">
<rect x="4" width="195" height="195" rx="14" fill="url(#paint0_linear_5_4)"/>
</g>
</g>
<path d="M122.573 107.781C124.116 107.781 125.367 109.031 125.367 110.574C125.367 112.117 124.116 113.368 122.573 113.368H98.5388C96.996 113.368 95.7454 112.117 95.7454 110.574C95.7454 109.031 96.996 107.781 98.5388 107.781H122.573ZM138.079 97.9852C138.079 96.4424 136.828 95.1918 135.286 95.1918H98.5388C96.996 95.1918 95.7454 96.4424 95.7454 97.9852C95.7454 99.5279 96.996 100.779 98.5388 100.779H135.286C136.828 100.779 138.079 99.5279 138.079 97.9852ZM77.7343 34.013V21.637C77.7343 20.0942 78.9849 18.8436 80.5277 18.8436L90.6618 18.8376C90.6618 12.8621 95.5235 8 101.5 8C107.476 8 112.339 12.8621 112.339 18.8376V18.8436H122.472C124.015 18.8436 125.265 20.0942 125.265 21.637V34.013C125.265 35.5557 124.015 36.8064 122.472 36.8064H80.5277C78.9849 36.8064 77.7343 35.5557 77.7343 34.013ZM83.3211 31.2196H119.678V24.4304H109.545C108.002 24.4304 106.751 23.1798 106.751 21.637V18.8376C106.751 15.9421 104.396 13.5868 101.5 13.5868C98.6042 13.5868 96.2482 15.9421 96.2482 18.8376V21.637C96.2482 23.1798 94.9976 24.4304 93.4548 24.4304H83.3207V31.2196H83.3211ZM168.076 28.354V174.27C168.076 177.981 165.057 181 161.346 181H41.6543C37.9434 181 34.9246 177.981 34.9246 174.27V28.354C34.9246 24.6427 37.9434 21.6238 41.6543 21.6238H68.7164C70.2591 21.6238 71.5098 22.8745 71.5098 24.4172C71.5098 25.96 70.2591 27.2106 68.7164 27.2106H53.1168V161.957H149.883V27.2106H134.283C132.74 27.2106 131.49 25.96 131.49 24.4172C131.49 22.8745 132.74 21.6238 134.283 21.6238H161.345C165.057 21.6238 168.076 24.6427 168.076 28.354ZM162.489 28.354C162.489 27.7342 161.965 27.2106 161.346 27.2106H155.47V164.75C155.47 166.293 154.219 167.544 152.677 167.544H50.3234C48.7807 167.544 47.53 166.293 47.53 164.75V27.2106H41.6543C41.0345 27.2106 40.5114 27.7346 40.5114 28.354V174.27C40.5114 174.89 41.0349 175.413 41.6543 175.413H161.346C161.965 175.413 162.489 174.889 162.489 174.27V28.354ZM66.3564 59.2079C65.0079 59.9577 64.5223 61.6585 65.2721 63.0069L70.4048 72.24C70.8976 73.1263 71.8318 73.6762 72.8462 73.6762C73.8602 73.6762 74.7948 73.1263 75.2877 72.24L84.2354 56.1455C84.9852 54.7971 84.4995 53.0963 83.1511 52.3465C81.8035 51.5975 80.1019 52.0819 79.3521 53.4308L72.8458 65.1335L70.1546 60.2922C69.406 58.9437 67.7048 58.4581 66.3564 59.2079ZM83.1515 93.7911C81.8031 93.0416 80.1019 93.5269 79.3525 94.8753L72.8462 106.578L70.155 101.736C69.4056 100.388 67.7044 99.9015 66.356 100.652C65.0075 101.402 64.5219 103.103 65.2717 104.451L70.4044 113.684C70.8972 114.57 71.8314 115.12 72.8458 115.12C73.8598 115.12 74.7944 114.571 75.2873 113.684L84.235 97.5901C84.9856 96.2417 84.4999 94.5409 83.1515 93.7911ZM98.5388 71.9231H122.574C124.116 71.9231 125.367 70.6725 125.367 69.1297C125.367 67.5869 124.116 66.3363 122.574 66.3363H98.5388C96.996 66.3363 95.7454 67.5869 95.7454 69.1297C95.7454 70.6725 96.996 71.9231 98.5388 71.9231ZM135.286 53.7472H98.5388C96.996 53.7472 95.7454 54.9979 95.7454 56.5406C95.7454 58.0834 96.996 59.334 98.5388 59.334H135.286C136.828 59.334 138.079 58.0834 138.079 56.5406C138.079 54.9979 136.828 53.7472 135.286 53.7472Z" fill="black"/>
<defs>
<filter id="filter0_d_5_4" x="0" y="0" width="203" height="203" filterUnits="userSpaceOnUse" color-interpolation-filters="sRGB">
<feFlood flood-opacity="0" result="BackgroundImageFix"/>
<feColorMatrix in="SourceAlpha" type="matrix" values="0 0 0 0 0 0 0 0 0 0 0 0 0 0 0 0 0 0 127 0" result="hardAlpha"/>
<feOffset dy="4"/>
<feGaussianBlur stdDeviation="2"/>
<feComposite in2="hardAlpha" operator="out"/>
<feColorMatrix type="matrix" values="0 0 0 0 0 0 0 0 0 0 0 0 0 0 0 0 0 0 0.25 0"/>
<feBlend mode="normal" in2="BackgroundImageFix" result="effect1_dropShadow_5_4"/>
<feBlend mode="normal" in="SourceGraphic" in2="effect1_dropShadow_5_4" result="shape"/>
</filter>
<filter id="filter1_d_5_4" x="0" y="0" width="203" height="203" filterUnits="userSpaceOnUse" color-interpolation-filters="sRGB">
<feFlood flood-opacity="0" result="BackgroundImageFix"/>
<feColorMatrix in="SourceAlpha" type="matrix" values="0 0 0 0 0 0 0 0 0 0 0 0 0 0 0 0 0 0 127 0" result="hardAlpha"/>
<feOffset dy="4"/>
<feGaussianBlur stdDeviation="2"/>
<feComposite in2="hardAlpha" operator="out"/>
<feColorMatrix type="matrix" values="0 0 0 0 0 0 0 0 0 0 0 0 0 0 0 0 0 0 0.25 0"/>
<feBlend mode="normal" in2="BackgroundImageFix" result="effect1_dropShadow_5_4"/>
<feBlend mode="normal" in="SourceGraphic" in2="effect1_dropShadow_5_4" result="shape"/>
</filter>
<linearGradient id="paint0_linear_5_4" x1="101.5" y1="0" x2="101.5" y2="195" gradientUnits="userSpaceOnUse">
<stop stop-color="#D16BA5"/>
<stop offset="0.453125" stop-color="#6FAFC0"/>
<stop offset="1" stop-color="#B1FFFA"/>
</linearGradient>
</defs>
</svg>
